<?xml version="1.0" standalone="no"?>
<!DOCTYPE svg PUBLIC "-//W3C//DTD SVG 20010904//EN"
 "http://www.w3.org/TR/2001/REC-SVG-20010904/DTD/svg10.dtd">
<svg version="1.0" xmlns="http://www.w3.org/2000/svg"
 width="700.000000pt" height="700.000000pt" viewBox="0 0 700.000000 700.000000"
 preserveAspectRatio="xMidYMid meet">
<metadata>
Created by potrace 1.14, written by Peter Selinger 2001-2017
</metadata>
<g transform="translate(0.000000,700.000000) scale(0.100000,-0.100000)"
fill="#000000" stroke="none">
<path d="M3352 6519 c-75 -85 -95 -102 -163 -139 -42 -22 -96 -66 -155 -126
-62 -63 -100 -94 -122 -99 -19 -4 -47 -24 -71 -51 -33 -37 -50 -77 -110 -251
-39 -113 -94 -299 -121 -412 -76 -313 -79 -323 -111 -373 -38 -59 -163 -178
-211 -201 -28 -13 -63 -17 -152 -17 -76 0 -148 -7 -209 -19 -135 -28 -146 -30
-181 -20 -17 5 -67 41 -110 80 -83 75 -134 104 -202 114 -125 21 -221 -80
-232 -242 -4 -61 -8 -73 -22 -73 -9 0 -68 25 -130 56 -178 87 -261 102 -340
62 -61 -32 -83 -75 -77 -153 5 -68 29 -122 115 -254 88 -136 96 -168 88 -346
-4 -82 -13 -186 -22 -230 -24 -122 -29 -253 -12 -295 9 -19 45 -73 82 -120 87
-109 101 -138 121 -246 20 -107 42 -152 92 -193 78 -64 214 -82 366 -48 l67
15 0 -123 c0 -67 -4 -147 -10 -176 -6 -34 -50 -135 -119 -274 -123 -247 -161
-346 -320 -830 -66 -199 -132 -381 -161 -440 -47 -97 -121 -205 -173 -254
l-26 -23 -88 17 c-73 14 -99 15 -144 6 -105 -22 -187 -86 -224 -174 -22 -54
-19 -93 17 -159 42 -80 92 -109 195 -116 102 -6 407 16 465 34 55 18 154 105
243 214 32 39 75 80 96 91 44 22 80 65 108 132 12 27 94 187 183 355 201 381
284 554 383 797 130 319 246 547 306 600 l22 20 -6 -115 c-4 -90 -14 -148 -47
-270 -23 -85 -68 -274 -101 -420 -140 -617 -260 -982 -354 -1070 -24 -22 -25
-22 -89 -6 -121 30 -220 14 -293 -49 -54 -46 -77 -105 -71 -183 8 -119 89
-173 267 -180 132 -5 399 14 470 34 72 20 127 77 221 228 59 95 86 129 137
169 79 61 102 105 143 268 32 125 88 264 185 459 73 146 106 245 181 545 106
424 138 587 174 895 11 96 28 199 37 228 22 73 74 121 219 207 97 57 137 88
219 171 55 56 129 123 165 150 36 27 89 68 118 91 29 24 98 66 153 94 84 42
117 66 204 149 57 55 111 100 119 100 45 0 213 -298 260 -462 51 -178 58 -267
61 -748 2 -509 9 -582 75 -782 24 -72 44 -159 51 -213 5 -49 17 -142 26 -205
13 -94 14 -169 8 -415 -4 -184 -11 -305 -17 -312 -6 -7 -22 -13 -36 -13 -64 0
-168 -80 -203 -155 -39 -85 -12 -203 56 -245 59 -36 128 -45 281 -33 206 15
248 44 315 216 37 96 53 179 68 347 7 69 21 195 32 280 12 85 23 241 26 345 5
166 3 204 -16 301 -11 61 -21 133 -21 159 0 58 28 163 81 300 21 55 56 168 79
250 46 168 89 306 100 318 3 4 19 -34 34 -85 31 -104 105 -307 173 -473 46
-114 79 -178 168 -326 102 -170 165 -430 230 -944 15 -115 25 -226 22 -246 -3
-20 -16 -53 -30 -75 -77 -116 -77 -277 0 -346 54 -49 161 -65 319 -49 146 16
208 45 244 116 23 46 25 60 23 170 -1 123 -21 256 -82 545 -16 80 -39 218 -50
306 -11 89 -41 255 -65 370 -57 267 -62 307 -81 554 -9 113 -33 378 -55 590
-55 538 -62 627 -63 775 -1 117 2 142 30 245 49 179 58 271 57 585 -3 575 -80
929 -250 1145 -52 67 -125 110 -183 110 -91 0 -204 -87 -303 -232 -33 -49 -62
-88 -65 -88 -3 0 -71 64 -151 143 -198 192 -512 428 -627 473 -47 17 -52 23
-35 40 8 8 -14 16 -72 28 -46 10 -182 44 -303 77 -268 71 -378 91 -515 91 -94
0 -116 -4 -212 -36 -114 -38 -158 -44 -158 -23 0 30 -49 60 -105 65 l-55 4
-48 -53z"/>
</g>
</svg>
